<svg width="98" height="57" viewBox="0 0 98 57" fill="none" xmlns="http://www.w3.org/2000/svg"><g clip-path="url(#a)" fill="#7D5E3E"><path d="M0 1.686h7.5v.816H.927v11.404h5.478v.815H.928v8.032H0V1.686Zm10.309 0h1.208c1.815 0 3.413.67 4.789 2.007 1.376 1.34 2.065 2.914 2.065 4.718 0 1.804-.703 3.375-2.106 4.704-1.404 1.329-2.914 1.994-4.523 1.994h-.198l7.247 7.639h-1.208l-6.376-6.684v6.684h-.898V1.686Zm.898 12.61h.505c1.516 0 2.856-.58 4.017-1.741 1.162-1.162 1.741-2.537 1.741-4.13s-.598-2.977-1.798-4.158c-1.198-1.18-2.565-1.768-4.1-1.768h-.365v11.797ZM30.98 1.18l10.534 21.573h-.983l-3.99-8.032H25.277l-3.932 8.032h-.87L30.98 1.181Zm-.082 1.937-5.253 10.786h10.561L30.898 3.117Zm29.07-1.431h.815v21.375L45.28 3.987v18.764h-.815V1.376l15.504 19.043V1.686Zm5.028 0h.898v7.725l8.905-7.725h1.123l-9.636 8.4 12.108 12.667h-1.236L65.92 11.042v11.711h-.928V1.686h.003ZM81.315 3.23V0h1.01v3.23c0 .88-.244 1.633-.73 2.26-.486.628-1.134 1.062-1.939 1.306v-.983c1.104-.505 1.66-1.367 1.66-2.584Zm12.654-.42c-.739-.451-1.568-.676-2.485-.676-.917 0-1.7.285-2.345.856-.646.572-.97 1.354-.97 2.346v.14c0 1.18.657 2.257 1.966 3.229a20.26 20.26 0 0 0 1.895 1.222c.703.404 1.403.835 2.106 1.29.703.46 1.338.945 1.912 1.461a6.173 6.173 0 0 1 1.403 1.895c.365.75.546 1.574.546 2.472v.28c0 1.78-.604 3.193-1.812 4.242-1.208 1.05-2.702 1.574-4.479 1.574-2.34 0-4.157-.964-5.448-2.895v-1.515a6.3 6.3 0 0 0 2.15 2.597c.945.665 2.12.997 3.526.997 1.406 0 2.623-.45 3.652-1.348 1.03-.898 1.546-2.098 1.546-3.595v-.167a4.75 4.75 0 0 0-.73-2.57 6.362 6.362 0 0 0-1.826-1.912 85.938 85.938 0 0 0-2.386-1.56 365.505 365.505 0 0 1-2.387-1.515 6.296 6.296 0 0 1-1.826-1.769 4.048 4.048 0 0 1-.73-2.331V5.36c0-1.31.42-2.312 1.263-3.004.843-.692 1.88-1.038 3.116-1.038 1.722 0 3.09.637 4.1 1.909V4.66a4.871 4.871 0 0 0-1.754-1.854l-.003.003ZM15.364 35.39h.928v21.068h-.928v-8.032H.928v8.032H0V35.391h.928v12.22h14.439V35.39h-.003Zm7.486 18.146c-2.126-2.19-3.188-4.75-3.188-7.68 0-2.93 1.076-5.468 3.229-7.612 2.153-2.145 4.737-3.216 7.752-3.216 3.015 0 5.59 1.068 7.724 3.202 2.134 2.134 3.202 4.677 3.202 7.626 0 2.949-1.057 5.514-3.174 7.697-2.117 2.18-4.644 3.273-7.585 3.273h-.42c-2.902 0-5.418-1.096-7.543-3.287l.003-.003Zm17.794-7.625c0-2.763-.978-5.13-2.935-7.107-1.958-1.974-4.317-2.963-7.08-2.963-2.762 0-5.127.989-7.093 2.963-1.966 1.977-2.949 4.344-2.949 7.107 0 2.762.983 5.135 2.95 7.12 1.965 1.986 4.324 2.977 7.079 2.977 2.754 0 5.113-.992 7.079-2.977 1.966-1.985 2.949-4.358 2.949-7.12ZM51.375 56.85h-.28c-1.721 0-3.18-.598-4.369-1.798-1.189-1.197-1.785-2.705-1.785-4.522V35.39h.929v15.112c0 1.593.513 2.914 1.546 3.96 1.03 1.049 2.303 1.573 3.82 1.573 1.515 0 2.784-.519 3.805-1.56 1.022-1.04 1.53-2.364 1.53-3.973V35.391h.928v15.084c0 1.834-.596 3.355-1.785 4.563-1.189 1.209-2.636 1.813-4.339 1.813Zm17.061-20.333c-.738-.45-1.568-.676-2.485-.676-.917 0-1.7.286-2.345.857-.645.571-.97 1.354-.97 2.345v.14c0 1.18.657 2.257 1.967 3.23.563.411 1.195.82 1.895 1.221a45.79 45.79 0 0 1 2.106 1.29c.703.46 1.337.946 1.911 1.462a6.177 6.177 0 0 1 1.403 1.895c.366.75.547 1.573.547 2.471v.28c0 1.78-.604 3.194-1.813 4.243-1.208 1.049-2.702 1.573-4.478 1.573-2.34 0-4.158-.964-5.448-2.894v-1.516a6.3 6.3 0 0 0 2.15 2.598c.944.664 2.12.997 3.526.997 1.406 0 2.622-.45 3.652-1.349 1.03-.898 1.546-2.098 1.546-3.594v-.168a4.76 4.76 0 0 0-.73-2.57 6.36 6.36 0 0 0-1.827-1.911 85.938 85.938 0 0 0-2.386-1.56 366.4 366.4 0 0 1-2.386-1.516 6.297 6.297 0 0 1-1.826-1.768 4.047 4.047 0 0 1-.73-2.332v-.197c0-1.31.42-2.313 1.262-3.005.843-.692 1.881-1.038 3.117-1.038 1.722 0 3.09.638 4.1 1.909v1.433a4.872 4.872 0 0 0-1.755-1.853l-.003.003Zm7.261-1.127h7.557v.816h-6.63v11.46h5.534v.815h-5.533v7.162h6.629v.815h-7.557V35.391Z"/></g><defs><clipPath id="a"><path fill="#fff" d="M0 0h98v56.851H0z"/></clipPath></defs></svg>